<svg width="107" height="89" viewBox="0 0 107 89" fill="none" xmlns="http://www.w3.org/2000/svg">
<path d="M78.3601 83.0695L9.1556 63.5403C4.12233 62.1216 1.26544 57.1174 2.76721 52.3626L16.5882 8.63798C18.0899 3.88314 23.3872 1.1843 28.4204 2.60299L97.625 22.1322C102.658 23.5509 105.515 28.5551 104.013 33.3099L90.1924 77.0345C88.6848 81.7838 83.3875 84.4882 78.3601 83.0695Z" stroke="#4D2C5E" stroke-opacity="0.1" stroke-width="4" stroke-miterlimit="10" stroke-linecap="round"/>
<path d="M4.39795 47.1921L91.8231 71.8641" stroke="#4D2C5E" stroke-opacity="0.1" stroke-width="4" stroke-miterlimit="10" stroke-linecap="round"/>
<path d="M48.3213 66.6896C47.9462 67.874 46.6214 68.5492 45.367 68.195C44.1126 67.8408 43.3975 66.59 43.7727 65.4057C44.1478 64.2214 45.4726 63.5462 46.727 63.9004C47.9814 64.2546 48.6965 65.5053 48.3213 66.6896Z" fill="#4D2C5E" fill-opacity="0.5"/>
<path d="M53.566 76.0792L33.9653 70.5486L31.3244 78.9014L50.925 84.432L53.566 76.0792Z" stroke="#4D2C5E" stroke-opacity="0.1" stroke-width="4" stroke-miterlimit="10" stroke-linecap="round"/>
<path d="M24.0562 77.3284L57.8929 86.8768" stroke="#4D2C5E" stroke-opacity="0.1" stroke-width="4" stroke-miterlimit="10" stroke-linecap="round"/>
</svg>
