<svg width="82" height="83" viewBox="0 0 82 83" fill="none" xmlns="http://www.w3.org/2000/svg">
<path d="M41.0871 59.1613C62.7809 59.1613 80.3671 51.2864 80.3671 41.5721C80.3671 31.8579 62.7809 23.9829 41.0871 23.9829C19.3934 23.9829 1.80713 31.8579 1.80713 41.5721C1.80713 51.2864 19.3934 59.1613 41.0871 59.1613Z" stroke="#4D2C5E" stroke-opacity="0.1" stroke-width="3" stroke-miterlimit="10" stroke-linecap="round" stroke-linejoin="round"/>
<path d="M56.9721 50.7407C68.2528 33.237 70.2778 14.9525 61.495 9.90112C52.7122 4.84971 36.4475 14.9443 25.1668 32.4479C13.886 49.9516 11.8611 68.2361 20.6438 73.2875C29.4266 78.3389 45.6913 68.2444 56.9721 50.7407Z" stroke="#4D2C5E" stroke-opacity="0.1" stroke-width="3" stroke-miterlimit="10" stroke-linecap="round" stroke-linejoin="round"/>
<path d="M61.4872 73.2796C70.27 68.2281 68.245 49.9436 56.9643 32.44C45.6835 14.9363 29.4188 4.84176 20.636 9.89317C11.8532 14.9446 13.8782 33.2291 25.159 50.7327C36.4397 68.2364 52.7044 78.331 61.4872 73.2796Z" stroke="#4D2C5E" stroke-opacity="0.1" stroke-width="3" stroke-miterlimit="10" stroke-linecap="round" stroke-linejoin="round"/>
<path d="M41.087 46.2283C43.8091 46.2283 46.0158 44.1437 46.0158 41.5722C46.0158 39.0006 43.8091 36.916 41.087 36.916C38.3649 36.916 36.1582 39.0006 36.1582 41.5722C36.1582 44.1437 38.3649 46.2283 41.087 46.2283Z" stroke="#4D2C5E" stroke-opacity="0.1" stroke-width="3" stroke-miterlimit="10" stroke-linecap="round" stroke-linejoin="round"/>
</svg>
